<?xml version="1.0" encoding="UTF-8"?>
<svg version="1.1" xmlns="http://www.w3.org/2000/svg" width="762" height="220">
<path d="M0 0 C1.00844971 0.01015137 2.01689941 0.02030273 3.0559082 0.03076172 C18.6670183 0.35612454 31.98647718 5.05205811 43.375 16.0390625 C51.1427729 24.33393428 55.77146831 34.69957917 55.8125 46.25 C55.73 47.28125 55.6475 48.3125 55.5625 49.375 C48.88276118 50.6473312 38.71610983 52.45180491 32.5625 49.375 C31.89327899 47.52222219 31.30140149 45.64118977 30.75 43.75 C28.18447829 35.88550981 25.98426503 31.37950889 18.5 27.5 C8.52853563 22.85996573 -3.74772345 22.81387684 -14.1875 26.125 C-19.79532629 28.32670471 -23.25416568 30.25315915 -26.25 35.625 C-27.97299553 41.06603852 -28.25782385 45.12990316 -26.25 50.625 C-18.26505946 62.74008219 -0.07846168 65.32204986 12.96582031 68.91918945 C31.85351964 74.15896895 47.58951627 80.95413329 58.3125 98.1875 C63.52311425 111.47456633 62.23797054 125.39179124 57.37890625 138.58984375 C51.65152875 151.1965642 42.13925287 158.95780922 29.5625 164.375 C26.56489615 165.3868095 23.69864198 165.99144307 20.5625 166.375 C19.76328125 166.48328125 18.9640625 166.5915625 18.140625 166.703125 C-0.58113402 168.91252513 -21.97870847 167.05664344 -37.4375 155.375 C-47.67843711 146.56058639 -55.43893497 135.00877531 -57.4375 121.375 C-57.50530195 118.75784478 -57.53227108 116.1770287 -57.5 113.5625 C-57.479375 111.190625 -57.45875 108.81875 -57.4375 106.375 C-49.8475 106.375 -42.2575 106.375 -34.4375 106.375 C-34.045625 108.64375 -33.65375 110.9125 -33.25 113.25 C-31.42029546 122.72466958 -28.55802221 130.79063138 -20.68359375 136.90234375 C-9.23258269 144.41022405 6.09976487 144.15928692 19.25 141.6796875 C26.31801269 139.34331664 31.62943785 135.55519902 35.5 129.1875 C37.42169682 122.29199964 37.67193521 114.86639106 34.7109375 108.2109375 C26.16051636 94.54189691 6.12400974 91.0284219 -8.46875 87.3515625 C-23.87647706 83.4369977 -37.86889129 77.65848033 -47.4375 64.375 C-52.51645194 54.56858069 -52.93154456 41.84522282 -50.7890625 31.1328125 C-47.44876082 21.05480828 -40.27481522 12.12484007 -30.9375 7.00390625 C-20.8443976 2.17240695 -11.18470399 -0.16374745 0 0 Z " fill="#FDFDFE" transform="translate(685.4375,25.625)"/>
<path d="M0 0 C15.18 0 30.36 0 46 0 C49.37008181 10.11024542 49.37008181 10.11024542 50.65625 15.03515625 C50.95072021 16.15301514 51.24519043 17.27087402 51.54858398 18.42260742 C51.86255127 19.62377197 52.17651855 20.82493652 52.5 22.0625 C53.20707565 24.74807561 53.91734335 27.43279757 54.62890625 30.1171875 C54.81663101 30.82556259 55.00435577 31.53393768 55.19776917 32.26377869 C57.31848372 40.23933002 59.52881954 48.18987544 61.73266602 56.14276123 C65.83143709 70.94100009 69.79336151 85.76456023 73.56811523 100.64868164 C75.6340666 108.77834806 77.76638905 116.88659996 79.96875 124.98046875 C80.34694885 126.37364571 80.34694885 126.37364571 80.73278809 127.79496765 C81.96634448 132.33632717 83.2070019 136.8755515 84.45898438 141.41186523 C84.91042136 143.06877545 85.36160555 144.72575457 85.8125 146.3828125 C86.01935425 147.1219841 86.2262085 147.8611557 86.43933105 148.62272644 C87.85474405 153.86110205 88.38563744 158.47073696 89 164 C81.41 164 73.82 164 66 164 C62.62585034 155.00226757 62.62585034 155.00226757 61.7890625 151.73046875 C61.59570312 150.98474609 61.40234375 150.23902344 61.203125 149.47070312 C61.01234375 148.71724609 60.8215625 147.96378906 60.625 147.1875 C60.24245098 145.70175505 59.85962147 144.2160823 59.4765625 142.73046875 C58.98929687 140.83941406 58.50203125 138.94835937 58 137 C56.35 130.73 54.7 124.46 53 118 C33.2 118 13.4 118 -7 118 C-10.90790191 132.7635416 -10.90790191 132.7635416 -14.80834961 147.52905273 C-15.29774287 149.37230517 -15.78738995 151.21549024 -16.27734375 153.05859375 C-16.65832214 154.50836609 -16.65832214 154.50836609 -17.04699707 155.98742676 C-17.29050903 156.90092896 -17.534021 157.81443115 -17.78491211 158.75561523 C-17.99587021 159.55281479 -18.20682831 160.35001434 -18.42417908 161.17137146 C-19 163 -19 163 -20 164 C-21.70772358 164.08713831 -23.41898649 164.10700007 -25.12890625 164.09765625 C-26.68061523 164.09282227 -26.68061523 164.09282227 -28.26367188 164.08789062 C-29.35228516 164.07951172 -30.44089844 164.07113281 -31.5625 164.0625 C-33.2012207 164.05573242 -33.2012207 164.05573242 -34.87304688 164.04882812 C-37.58208495 164.03699826 -40.29101599 164.02051543 -43 164 C-42.4007843 155.62310302 -40.24738116 147.75379717 -38.0546875 139.68359375 C-37.64796652 138.16742172 -37.24183766 136.65109075 -36.83625793 135.13461304 C-35.74870066 131.07458472 -34.6531864 127.0167439 -33.55605698 122.95929337 C-32.41408483 118.73083981 -31.27923462 114.50047614 -30.14379883 110.27026367 C-28.5349526 104.27870401 -26.92375784 98.28778535 -25.30954456 92.29766941 C-22.89182228 83.32527104 -20.48768968 74.34937231 -18.09823608 65.36940575 C-16.93804146 61.00979781 -15.77577545 56.65074122 -14.61407471 52.29153442 C-14.00804559 50.01606096 -13.40267201 47.74041277 -12.79803467 45.46456909 C-8.75075224 30.24081601 -4.45661442 15.10956092 0 0 Z M18 23 C15.52871171 30.16239547 13.44928064 37.3893354 11.4609375 44.69921875 C11.13461334 45.89303665 10.80828918 47.08685455 10.47207642 48.31684875 C9.78676325 50.82685517 9.10273351 53.33721232 8.41992188 55.84790039 C7.37518021 59.68683782 6.32456219 63.52413414 5.2734375 67.36132812 C4.60641654 69.80719507 3.93973805 72.25315545 3.2734375 74.69921875 C2.95990326 75.84307541 2.64636902 76.98693207 2.32333374 78.16545105 C2.03278107 79.23709 1.74222839 80.30872894 1.44287109 81.4128418 C1.18766693 82.34944138 0.93246277 83.28604095 0.66952515 84.25102234 C-0.0393982 87.16176358 -0.61953593 90.02777694 -1 93 C-0.01477856 94.20528245 -0.01477856 94.20528245 1.86659241 94.12025452 C2.68155685 94.11803391 3.4965213 94.11581329 4.33618164 94.11352539 C5.2570607 94.11344986 6.17793976 94.11337433 7.12672424 94.11329651 C8.62827309 94.10555458 8.62827309 94.10555458 10.16015625 94.09765625 C11.17975937 94.0962413 12.19936249 94.09482635 13.24986267 94.09336853 C16.52077107 94.08775097 19.79161213 94.0751955 23.0625 94.0625 C25.27408756 94.05748726 27.48567618 94.05292396 29.69726562 94.04882812 C35.13153357 94.03777584 40.56576197 94.02102063 46 94 C45.54340696 87.76956193 44.68426365 82.08032951 42.76171875 76.140625 C40.80382511 69.79268669 39.02315454 63.42481527 37.39453125 56.984375 C37.1815036 56.1445105 36.96847595 55.304646 36.74899292 54.43933105 C35.87824709 50.99586908 35.01357371 47.5508931 34.14868164 44.10595703 C33.50424443 41.54388563 32.85575715 38.98286323 32.20703125 36.421875 C32.0143013 35.64793396 31.82157135 34.87399292 31.6230011 34.07659912 C30.65385241 30.25328433 29.58414282 26.62679427 28 23 C24.7 23 21.4 23 18 23 Z " fill="#FEFEFE" transform="translate(207,28)"/>
<path d="M0 0 C9.84949356 -0.09304864 19.69888101 -0.16394085 29.54872608 -0.20724869 C34.12338194 -0.22804377 38.6977351 -0.256212 43.2722168 -0.30175781 C47.69428635 -0.3455061 52.11606638 -0.36919773 56.5383358 -0.37950897 C58.21789794 -0.38684871 59.89744584 -0.40118034 61.57688332 -0.42292023 C77.0044591 -0.61452078 89.58455158 2.37050895 101.29296875 13.1015625 C109.87086907 22.21055234 114.95997283 33.87841685 115.375 46.4375 C114.93520909 60.43084716 109.51106085 71.93043126 100 82 C88.14229762 92.32387023 75.09873265 94.17730038 59.9375 94.09765625 C58.56368164 94.09614563 58.56368164 94.09614563 57.16210938 94.09460449 C53.77472666 94.08941342 50.38736193 94.07545249 47 94.0625 C39.41 94.041875 31.82 94.02125 24 94 C23.67 117.1 23.34 140.2 23 164 C15.74 164 8.48 164 1 164 C0 163 0 163 -0.12304783 160.33132076 C-0.12212604 159.1302245 -0.12120424 157.92912825 -0.12025452 156.69163513 C-0.12110894 156.02516167 -0.12196337 155.35868821 -0.12284368 154.67201859 C-0.12450035 152.42251366 -0.11897411 150.17308212 -0.11352539 147.92358398 C-0.11324353 146.31754559 -0.11340122 144.71150707 -0.1139679 143.10546875 C-0.11425593 138.73168933 -0.10835832 134.35793708 -0.10139394 129.984164 C-0.09516131 125.41840422 -0.09455667 120.85264387 -0.09336853 116.28688049 C-0.09025495 107.63478695 -0.08204119 98.98270597 -0.07201904 90.33061796 C-0.06085874 80.48314177 -0.05534766 70.63566499 -0.05032361 60.78818405 C-0.0398586 40.525449 -0.02225864 20.26272529 0 0 Z M24 23 C23.21037244 25.79206014 22.8738512 28.27186843 22.87060547 31.17016602 C22.86745331 31.98103165 22.86430115 32.79189728 22.86105347 33.62733459 C22.8630777 34.49410324 22.86510193 35.36087189 22.8671875 36.25390625 C22.86623077 37.15116928 22.86527405 38.04843231 22.86428833 38.97288513 C22.86360877 40.86660838 22.86544745 42.76033398 22.86962891 44.65405273 C22.87498657 47.55522883 22.86967312 50.45625055 22.86328125 53.35742188 C22.86394195 55.19791701 22.86522294 57.03841205 22.8671875 58.87890625 C22.86516327 59.74769913 22.86313904 60.616492 22.86105347 61.51161194 C22.86420563 62.31932541 22.86735779 63.12703888 22.87060547 63.95922852 C22.87140106 64.66886246 22.87219666 65.3784964 22.87301636 66.1096344 C22.93546871 68.22629453 22.93546871 68.22629453 24 71 C30.38623323 71.07647595 36.77234702 71.12877762 43.15893555 71.16479492 C45.3285768 71.17982036 47.49818798 71.20024653 49.66772461 71.22631836 C52.7980901 71.26297706 55.9280517 71.27978926 59.05859375 71.29296875 C60.49820717 71.31619453 60.49820717 71.31619453 61.96690369 71.33988953 C70.88665051 71.34208578 79.45853036 69.44407804 86 63 C91.02327669 57.03565376 91.78990786 51.02722348 91.4765625 43.375 C90.49115692 36.39639002 87.51281125 31.92484125 82.0625 27.5625 C75.41362661 22.77039618 68.80705834 22.72472861 60.9140625 22.8046875 C59.85714203 22.8075174 58.80022156 22.81034729 57.71127319 22.81326294 C54.34906499 22.8244215 50.98712714 22.84951841 47.625 22.875 C45.33984761 22.88503538 43.05469102 22.89416025 40.76953125 22.90234375 C35.17959589 22.92434668 29.58981727 22.95778127 24 23 Z " fill="#FEFEFE" transform="translate(24,28)"/>
<path d="M0 0 C4.01928423 -0.29206649 8.03583834 -0.46849455 12.0625 -0.625 C13.19623047 -0.70878906 14.32996094 -0.79257812 15.49804688 -0.87890625 C23.74273865 -1.11927627 23.74273865 -1.11927627 27.13330078 1.89916992 C28.98156664 4.51304298 30.49577916 7.1752174 32 10 C33.10688004 11.73875589 34.22670302 13.46934073 35.359375 15.19140625 C36.49172658 16.98041607 37.62187622 18.77082119 38.75 20.5625 C39.9812288 22.50815561 41.21300524 24.45346477 42.4453125 26.3984375 C43.04762695 27.34944336 43.64994141 28.30044922 44.27050781 29.28027344 C46.6983267 33.09815916 49.15867966 36.89441627 51.625 40.6875 C57.50364785 49.73664222 63.25628021 58.86480805 69 68 C73.12721247 64.3606377 75.7094173 59.9514217 78.5625 55.3125 C79.63849342 53.58542043 80.7153327 51.8588676 81.79296875 50.1328125 C82.33228027 49.26688477 82.8715918 48.40095703 83.42724609 47.50878906 C85.70444237 43.87630397 88.0357405 40.28021343 90.375 36.6875 C95.37990324 28.9870804 100.31256919 21.24165061 105.22998047 13.48510742 C106.33589318 11.74255795 107.45406062 10.00770352 108.58642578 8.28222656 C110.16766643 5.85010097 110.16766643 5.85010097 111.58203125 2.37890625 C114.61984302 -0.6098294 115.89193526 -0.42143081 120.078125 -0.5859375 C122.46945168 -0.54608206 124.86041461 -0.47456606 127.25 -0.375 C128.47203125 -0.34792969 129.6940625 -0.32085938 130.953125 -0.29296875 C133.97052741 -0.22224838 136.9843757 -0.12359116 140 0 C138.78616232 3.21482225 137.45498755 6.08475984 135.6015625 8.9765625 C135.12871826 9.7193042 134.65587402 10.4620459 134.16870117 11.22729492 C133.65927979 12.0185376 133.1498584 12.80978027 132.625 13.625 C131.52986251 15.34239346 130.43481277 17.05984287 129.33984375 18.77734375 C128.78151855 19.64987793 128.22319336 20.52241211 127.64794922 21.42138672 C125.14709668 25.33457257 122.66653702 29.26047045 120.1875 33.1875 C119.70104004 33.95723145 119.21458008 34.72696289 118.71337891 35.52001953 C113.97918885 43.01747435 109.28436134 50.5394012 104.58911133 58.0612793 C100.06287652 65.30897333 95.51356053 72.54167382 90.94335938 79.76171875 C90.49541016 80.46941406 90.04746094 81.17710938 89.5859375 81.90625 C89.2048584 82.50759766 88.8237793 83.10894531 88.43115234 83.72851562 C87.95887207 84.47810547 87.4865918 85.22769531 87 86 C86.3816201 86.72769592 86.3816201 86.72769592 85.75074768 87.47009277 C80.55849973 94.22485036 81.26875603 101.97828056 81.29296875 110.09375 C81.27983737 111.65175293 81.26452873 113.20973889 81.24714661 114.7677002 C81.20745133 118.84477804 81.19711626 122.92140897 81.19311523 126.99865723 C81.18375438 131.16851221 81.14632256 135.3381078 81.11132812 139.5078125 C81.04691014 147.67188001 81.01354083 155.83569024 81 164 C77.35418313 164.02887512 73.70839537 164.04675585 70.0625 164.0625 C69.02158203 164.07087891 67.98066406 164.07925781 66.90820312 164.08789062 C65.91884766 164.09111328 64.92949219 164.09433594 63.91015625 164.09765625 C62.99371338 164.10289307 62.07727051 164.10812988 61.13305664 164.11352539 C59 164 59 164 58 163 C57.95506408 160.94235625 57.98057565 158.88315742 58.03271484 156.82568359 C58.06217303 155.48515315 58.09089455 154.14460637 58.11898804 152.80404663 C58.13501446 152.08778484 58.15104088 151.37152306 58.16755295 150.63355637 C58.2575069 145.99923918 58.27552173 141.36398075 58.30389977 136.72894859 C58.33265958 132.67994103 58.38727704 128.63490259 58.50390625 124.58740234 C59.08647259 103.49860588 57.85735616 89.10158164 43.75242615 72.18035889 C41.2803115 69.10456757 39.38646768 65.86593821 37.4375 62.4375 C33.3269723 55.44269157 28.96709415 48.61515934 24.59594727 41.78100586 C19.32873462 33.53898375 14.13987025 25.249539 8.97412109 16.94360352 C8.38195801 15.99283936 7.78979492 15.0420752 7.1796875 14.0625 C6.62893555 13.17691406 6.07818359 12.29132812 5.51074219 11.37890625 C4.24209523 9.38121784 2.92805355 7.43725016 1.5703125 5.5 C0 3 0 3 0 0 Z " fill="#FDFDFE" transform="translate(310,28)"/>
<path d="M0 0 C3.67773432 2.60506181 4.81629033 3.98959682 5.625 8.4375 C4.80612961 13.10506125 3.32246207 14.67753793 0 18 C-0.66 18.33 -1.32 18.66 -2 19 C-2 25.6 -2 32.2 -2 39 C0.97 39.33 3.94 39.66 7 40 C10.80078125 41.55859375 10.80078125 41.55859375 14.3125 43.4375 C14.90611328 43.75009766 15.49972656 44.06269531 16.11132812 44.38476562 C17.74605435 45.24677845 19.37334052 46.12285983 21 47 C22.33031097 47.67267744 23.66207382 48.34259924 25 49 C26.82200133 47.25904321 28.63229575 45.50822868 30.4375 43.75 C31.2119043 43.01330078 31.2119043 43.01330078 32.00195312 42.26171875 C35.67166315 38.7313772 35.67166315 38.7313772 37 34 C36.938125 33.05125 36.87625 32.1025 36.8125 31.125 C37.05468662 27.08855641 38.52307547 25.13258102 41 22 C44.21459986 20.39270007 47.52388103 20.38069145 51 21 C53.9375 23.4375 53.9375 23.4375 56 26 C56.33 26.33 56.66 26.66 57 27 C57.38684641 31.02320262 57.41652015 33.30579975 55.3125 36.8125 C52.83219476 39.15873468 51.31258497 40.21128929 48 41 C47.06285156 40.7628125 46.12570312 40.525625 45.16015625 40.28125 C41.92152995 39.66970652 41.92152995 39.66970652 39.33203125 41.6953125 C38.50058594 42.49710938 37.66914062 43.29890625 36.8125 44.125 C35.97332031 44.91132812 35.13414062 45.69765625 34.26953125 46.5078125 C32.10570524 48.88392437 30.5363377 51.18755118 29 54 C29.47050781 54.75023437 29.94101562 55.50046875 30.42578125 56.2734375 C35.04824428 63.87226906 39 70.94460562 39 80 C42.25154712 79.97715855 45.49959514 79.89980426 48.75 79.8125 C49.67039062 79.80669922 50.59078125 79.80089844 51.5390625 79.79492188 C57.13027094 79.71538526 57.13027094 79.71538526 61.515625 76.51171875 C62.00546875 75.68285156 62.4953125 74.85398437 63 74 C66.22640088 72.38679956 69.5114756 72.41189627 73 73 C76.3096955 75.39424781 77.67673089 77.106256 79.0625 80.9375 C78.97710001 85.12209947 77.72135267 86.85997769 75 90 C71.58113119 92.37834352 70.01418776 93.16227004 65.875 92.5 C63 91 63 91 61.4609375 88.45703125 C57.69435474 84.69642719 53.87812888 85.21982014 48.75 85.1875 C47.81414062 85.16236328 46.87828125 85.13722656 45.9140625 85.11132812 C43.60895268 85.0525243 41.30573826 85.01619733 39 85 C38.87109375 86.21558594 38.7421875 87.43117188 38.609375 88.68359375 C37.5733484 96.91203577 34.06109559 103.53304452 29 110 C30.58117437 113.73890956 32.89703399 116.32706163 35.6875 119.25 C36.51636719 120.14203125 37.34523438 121.0340625 38.19921875 121.953125 C41.72281625 124.52825065 43.7274195 124.2772474 48 124 C52.07043267 125.56555103 54.97024152 127.0532474 57 131 C57.44250907 134.46632103 57.22686424 136.4865704 55.8125 139.6875 C53.70629003 142.37473341 52.15486526 143.67935873 49 145 C45.4055968 144.9251166 43.32632484 144.18129158 40.1875 142.4375 C37.56963557 139.52045107 37.34871574 137.80508782 37.140625 134 C36.75127467 128.46257312 34.1844024 125.66062473 30.4375 121.75 C29.91736328 121.19570312 29.39722656 120.64140625 28.86132812 120.0703125 C27.58069015 118.70743172 26.2911951 117.35288317 25 116 C24.32195312 116.38671875 23.64390625 116.7734375 22.9453125 117.171875 C7.16831683 126 7.16831683 126 -2 126 C-2 132.93 -2 139.86 -2 147 C-0.68 147.33 0.64 147.66 2 148 C3.75 149.0625 3.75 149.0625 5 151 C5.65260739 155.97613134 5.50995009 158.04809316 3.125 162.5 C0.61820757 165.13608259 -1.48251131 165.44087557 -5.0625 165.5625 C-8.99181683 165.47168374 -11.1204883 164.71276938 -14 162 C-15.20190901 158.39427296 -15.32670315 155.7897565 -15 152 C-13.20437595 149.24670979 -11.94745078 147.47372539 -9 146 C-8.67 139.73 -8.34 133.46 -8 127 C-9.815 126.5875 -11.63 126.175 -13.5 125.75 C-21.42861701 123.76318186 -27.25755822 120.5487741 -34 116 C-35.9853759 117.93147429 -37.96329392 119.86966609 -39.9375 121.8125 C-40.78344727 122.63331055 -40.78344727 122.63331055 -41.64648438 123.47070312 C-45.01029562 126.77960394 -45.01029562 126.77960394 -47 131 C-46.95875 131.94875 -46.9175 132.8975 -46.875 133.875 C-47.02235772 137.5589429 -47.73857643 139.11473544 -50 142 C-52.67032527 144.10815153 -54.07521842 145.04623908 -57.5 144.875 C-61.10582397 143.61296161 -64.02890009 142.34104274 -66.3125 139.1875 C-67.24084633 136.23367076 -67.37765935 134.084218 -67 131 C-65.44514573 128.14943384 -64.21478404 126.46663938 -61.12890625 125.28125 C-58.29228869 124.55198726 -55.48430719 124.05537168 -52.57421875 123.72265625 C-49.16741449 122.76626962 -47.35014715 121.06577831 -44.75 118.6875 C-43.87859375 117.90761719 -43.0071875 117.12773437 -42.109375 116.32421875 C-39.58410906 113.54522258 -39.58410906 113.54522258 -39 110 C-40.1731268 108.35762247 -41.35467911 106.72035396 -42.5859375 105.12109375 C-46.84544848 98.73182727 -48 92.5908936 -48 85 C-54.93 85 -61.86 85 -69 85 C-69.66 86.32 -70.32 87.64 -71 89 C-73.6875 91.375 -73.6875 91.375 -77 93 C-80.82503952 92.47240834 -83.23835189 91.5077654 -86.4375 89.375 C-88.66904143 85.98305702 -88.74807777 82.87920743 -88 79 C-85.96554521 75.25660318 -84.47497199 74.2072605 -80.5625 72.5 C-77 72 -77 72 -74.3125 73.125 C-72 75 -72 75 -70.46484375 77.1015625 C-66.64655509 80.04243142 -62.92234403 79.4294401 -58.25 79.25 C-57.36183594 79.23195313 -56.47367187 79.21390625 -55.55859375 79.1953125 C-53.37129152 79.14827374 -51.18620184 79.08257009 -49 79 C-48.85304688 78.26136719 -48.70609375 77.52273437 -48.5546875 76.76171875 C-47.04526219 69.93460543 -44.89507772 64.37684635 -41.3046875 58.375 C-40.11211655 56.2040924 -39.45893207 54.41778845 -39 52 C-39.53109375 51.54109375 -40.0621875 51.0821875 -40.609375 50.609375 C-41.31578125 49.99578125 -42.0221875 49.3821875 -42.75 48.75 C-43.48734375 48.11449219 -44.2246875 47.47898438 -44.984375 46.82421875 C-47 45 -47 45 -49 42.5625 C-51.66881686 40.47748683 -53.70012736 40.93862606 -56.96875 41.109375 C-60.43245695 40.9228677 -62.44076371 39.1936311 -65 37 C-67.10857453 34.34136255 -67.00023614 33.01298793 -66.9375 29.5625 C-65.79175034 25.20865127 -64.68226218 23.58541812 -61 21 C-58.19311232 20.35356526 -55.80896558 20.37011075 -53 21 C-50.1899654 22.79363911 -48.49059532 24.01880935 -47 27 C-47.1346726 28.35532211 -47.2823788 29.70936581 -47.4375 31.0625 C-47.5016019 35.47840872 -46.25690986 37.50951413 -43.375 40.8125 C-40.16447887 44.08014784 -36.96533771 46.71993082 -33 49 C-32.47792969 48.61328125 -31.95585937 48.2265625 -31.41796875 47.828125 C-24.10245801 42.65217695 -16.77399074 39.75479815 -8 38 C-8 31.4 -8 24.8 -8 18 C-9.32 17.34 -10.64 16.68 -12 16 C-14.29072112 13.70927888 -14.941808 12.33460402 -15.5 9.125 C-14.80168878 4.7605549 -13.07276963 3.14593082 -10 0 C-6.71098658 -1.64450671 -3.42391374 -0.94272195 0 0 Z M-6 4 C-7.60414215 5.18523997 -7.60414215 5.18523997 -9 7 C-9.25069913 9.62570704 -9.25069913 9.62570704 -9 12 C-6.67145537 13.19838209 -6.67145537 13.19838209 -4 14 C-3.01 13.34 -2.02 12.68 -1 12 C-0.7497843 8.91634129 -0.7497843 8.91634129 -1 6 C-3.475 5.01 -3.475 5.01 -6 4 Z M-59 26 C-61.2491908 27.82703227 -61.2491908 27.82703227 -61.25 30.5 C-61.2491908 33.17296773 -61.2491908 33.17296773 -59 35 C-56.5 35.41666667 -56.5 35.41666667 -54 35 C-51.66608797 32.21885944 -51.66608797 32.21885944 -52.375 29.3125 C-52.58125 28.549375 -52.7875 27.78625 -53 27 C-55.90073181 26.32198966 -55.90073181 26.32198966 -59 26 Z M45 26 C42.79142762 27.82786272 42.79142762 27.82786272 42.5625 30.4375 C42.73583949 33.25299859 42.73583949 33.25299859 45.5 34.8125 C46.325 35.204375 47.15 35.59625 48 36 C50.16641665 34.33454661 50.16641665 34.33454661 52 32 C51.85974801 29.29294488 51.85974801 29.29294488 51 27 C48.09926819 26.32198966 48.09926819 26.32198966 45 26 Z M-32.75 55.375 C-40.63323975 64.57211304 -43.59379967 73.45901287 -43.28125 85.5703125 C-42.416818 96.11158056 -37.97014681 104.43907906 -30.375 111.75 C-20.5650025 119.66069348 -10.26117305 121.19427424 1.94970703 120.23046875 C12.97013847 118.99168722 20.06045942 112.64903823 27.1484375 104.54296875 C32.60834967 97.04422862 34.59067745 87.58345631 33.62890625 78.4921875 C31.75078443 66.94348809 27.95869739 58.68072782 18.5625 51.5 C1.71390957 40.30575989 -17.55038029 42.24805571 -32.75 55.375 Z M-81.875 79.125 C-83.27409643 81.02467776 -83.27409643 81.02467776 -82.6875 83.6875 C-82.460625 84.450625 -82.23375 85.21375 -82 86 C-79.14921909 86.76716851 -79.14921909 86.76716851 -76 87 C-74.10041919 85.68681738 -74.10041919 85.68681738 -73 84 C-73.62533375 81.47636012 -73.62533375 81.47636012 -75 79 C-77.87793863 77.81930723 -79.16939769 77.50163861 -81.875 79.125 Z M68 77 C66.68 77.99 65.36 78.98 64 80 C64.33 81.98 64.66 83.96 65 86 C67.34533951 86.76956136 67.34533951 86.76956136 70 87 C72 86 72 86 73 84 C73.08024658 81.40110217 73.08024658 81.40110217 72 79 C70.03241727 77.63979849 70.03241727 77.63979849 68 77 Z M-59.625 130.1875 C-61.42149467 132.55560662 -61.23521845 134.09897251 -61 137 C-59.2857711 138.23396041 -59.2857711 138.23396041 -57 139 C-54.2806707 138.21297649 -54.2806707 138.21297649 -52 137 C-51.66574265 134.62625139 -51.66574265 134.62625139 -52 132 C-54.56432114 129.52115623 -56.43603387 127.85710167 -59.625 130.1875 Z M43.875 131 C43.25625 131.66 42.6375 132.32 42 133 C42.78130071 135.49552484 42.78130071 135.49552484 44 138 C47.13349732 139.04449911 47.98968256 138.93423645 51 138 C51.33 136.02 51.66 134.04 52 132 C48.001714 128.49490703 48.001714 128.49490703 43.875 131 Z M-9 153 C-9.2502157 156.08365871 -9.2502157 156.08365871 -9 159 C-6.69 159.33 -4.38 159.66 -2 160 C-0.80161791 157.67145537 -0.80161791 157.67145537 0 155 C-1.64006462 151.9410421 -1.64006462 151.9410421 -3.9375 151.1875 C-6.31126059 150.75413029 -6.31126059 150.75413029 -9 153 Z " fill="#6FD2EF" transform="translate(542,27)"/>
<path d="M0 0 C5.55855771 2.79301499 8.38125325 5.32300413 10.68359375 11.12890625 C10.93359375 15.06640625 10.93359375 15.06640625 10.68359375 18.12890625 C9.69359375 18.45890625 8.70359375 18.78890625 7.68359375 19.12890625 C5.68359375 18.12890625 5.68359375 18.12890625 4.97265625 16.16796875 C4.75351562 15.37132813 4.534375 14.5746875 4.30859375 13.75390625 C3.42989556 11.02691187 2.85497067 9.33201964 0.99609375 7.12890625 C-2.41160194 5.65530812 -5.62243852 4.90158516 -9.31640625 5.12890625 C-13.25797656 6.95370732 -14.88752436 8.0995897 -16.56640625 12.12890625 C-16.81390625 13.11890625 -17.06140625 14.10890625 -17.31640625 15.12890625 C-17.95455969 16.47611908 -18.60965996 17.81637743 -19.31640625 19.12890625 C-20.63640625 18.46890625 -21.95640625 17.80890625 -23.31640625 17.12890625 C-22.8805664 11.68090811 -21.80161836 8.36767774 -18.31640625 4.12890625 C-12.57139925 -0.20916026 -7.14603284 -2.68729397 0 0 Z " fill="#6CD3F3" transform="translate(543.31640625,111.87109375)"/>
<path d="M0 0 C2.40596423 0.41482142 3.68465382 0.64798566 5.34375 2.5 C7.4719888 4.42746155 8.85666041 4.4823667 11.6875 4.6875 C12.49574219 4.75324219 13.30398438 4.81898438 14.13671875 4.88671875 C14.75160156 4.92410156 15.36648438 4.96148437 16 5 C16 5.66 16 6.32 16 7 C15.01 7 14.02 7 13 7 C12.67 7.99 12.34 8.98 12 10 C11.34 10 10.68 10 10 10 C10.33 11.98 10.66 13.96 11 16 C13.31 16.33 15.62 16.66 18 17 C18.08912219 13.16774573 17.87867729 9.73437848 17 6 C18.9375 6.8125 18.9375 6.8125 21 8 C21.33 8.99 21.66 9.98 22 11 C22.66 11 23.32 11 24 11 C23.50991501 17.37110482 23.50991501 17.37110482 21.125 20.3125 C16.45648855 24.01984733 16.45648855 24.01984733 13.125 23.875 C9.40031779 22.83208898 7.59204711 21.88828107 5 19 C4.30766073 16.3451242 4.14676984 13.73217695 4 11 C3.54673738 8.28042425 3.12069829 7.15932175 1.4375 4.9375 C0 3 0 3 0 0 Z " fill="#6DD9F5" transform="translate(575,148)"/>
<path d="M0 0 C2.8100346 1.79363911 4.50940468 3.01880935 6 6 C6.42652692 9.75343691 6.09537416 11.79335599 4.5 15.25 C1.69139849 18.33946166 -0.0186328 19.2093999 -4.0390625 19.94921875 C-7.1359376 20.02941671 -8.68874248 18.98107788 -11 17 C-13.60015907 14.48950159 -13.97421784 13.20257413 -14.4375 9.5625 C-13.93235165 5.44914913 -12.89538484 3.89538484 -10 1 C-6.79826746 -0.60086627 -3.47422941 -0.49917089 0 0 Z M-9 7 C-9.58350505 9.45709375 -9.58350505 9.45709375 -9 12 C-6.83928533 14.07976712 -6.83928533 14.07976712 -4 15 C-1.66666667 14.66666667 -1.66666667 14.66666667 0 13 C0.99843776 10.59117313 0.99843776 10.59117313 1 8 C0.34 7.01 -0.32 6.02 -1 5 C-5.50565109 4.44745736 -5.50565109 4.44745736 -9 7 Z " fill="#71D2F1" transform="translate(541,89)"/>
<path d="M0 0 C1.0290019 3.08700569 0.99278833 4.48087597 0.625 7.640625 C0.47804688 8.99994141 0.47804688 8.99994141 0.328125 10.38671875 C0.11114228 12.28015128 -0.10757889 14.17338548 -0.328125 16.06640625 C-0.89098166 21.30245437 -1.02902756 25.82627811 0 31 C-3 28 -3 28 -4 18 C-11.92 18 -19.84 18 -28 18 C-28 19.32 -28 20.64 -28 22 C-28.99 21.67 -29.98 21.34 -31 21 C-31 20.34 -31 19.68 -31 19 C-30.34 19 -29.68 19 -29 19 C-29.66 16.03 -30.32 13.06 -31 10 C-29 11.375 -29 11.375 -27 13 C-27 13.66 -27 14.32 -27 15 C-19.74 14.67 -12.48 14.34 -5 14 C-4.54625 11.875625 -4.0925 9.75125 -3.625 7.5625 C-3.15427374 5.35864524 -2.62669199 3.16467461 -2 1 C-1.34 0.67 -0.68 0.34 0 0 Z " fill="#67D7FA" transform="translate(499,93)"/>
<path d="M0 0 C1.051875 0.4640625 1.051875 0.4640625 2.125 0.9375 C5.08936657 2.03302678 7.87698108 2.56422992 11 3 C10.67 4.32 10.34 5.64 10 7 C9.34 7 8.68 7 8 7 C8.00523682 7.63091553 8.01047363 8.26183105 8.01586914 8.91186523 C8.03657826 11.75373347 8.04964066 14.59558588 8.0625 17.4375 C8.07087891 18.43072266 8.07925781 19.42394531 8.08789062 20.44726562 C8.09111328 21.39150391 8.09433594 22.33574219 8.09765625 23.30859375 C8.10289307 24.18314209 8.10812988 25.05769043 8.11352539 25.95874023 C8 28 8 28 7 29 C8.98 29.66 10.96 30.32 13 31 C7.44858029 34.18482809 1.06838523 33.5660349 -5 32 C-3 29 -3 29 5 27 C5 19.74 5 12.48 5 5 C2.525 4.01 2.525 4.01 0 3 C0 2.01 0 1.02 0 0 Z " fill="#66D7F7" transform="translate(530,39)"/>
<path d="M0 0 C2.31 0.33 4.62 0.66 7 1 C6.67 1.99 6.34 2.98 6 4 C4.35 4.33 2.7 4.66 1 5 C0.957279 6.66611905 0.95936168 8.33382885 1 10 C2.96822886 11.96822886 6.34808709 11.66248381 9 12 C9.33 9.36 9.66 6.72 10 4 C10.99 4.66 11.98 5.32 13 6 C12.67 8.64 12.34 11.28 12 14 C11.01 13.67 10.02 13.34 9 13 C8.67 13.99 8.34 14.98 8 16 C3.70892835 16.4206933 1.64865463 16.45543836 -1.9375 13.9375 C-4.45543836 10.35134537 -4.4206933 8.29107165 -4 4 C-3.01 3.67 -2.02 3.34 -1 3 C-0.67 2.01 -0.34 1.02 0 0 Z " fill="#67D7F7" transform="translate(481,50)"/>
<path d="M0 0 C1.8871875 0.061875 1.8871875 0.061875 3.8125 0.125 C1.05026722 2.88723278 -1.39456617 2.70356291 -5.1875 3.125 C-5.5175 5.765 -5.8475 8.405 -6.1875 11.125 C-4.8675 11.455 -3.5475 11.785 -2.1875 12.125 C-2.1875 12.785 -2.1875 13.445 -2.1875 14.125 C1.2775 13.63 1.2775 13.63 4.8125 13.125 C5.1425 14.115 5.4725 15.105 5.8125 16.125 C1.56135845 19.16152968 1.56135845 19.16152968 -1.75 19 C-4.58012185 17.98405882 -6.15511888 17.37513624 -8.1875 15.125 C-9.301469 10.1917087 -9.8431556 6.63961451 -7.1875 2.125 C-4.09861478 0.06574319 -3.47814073 -0.1140374 0 0 Z " fill="#6EDDF6" transform="translate(486.1875,152.875)"/>
<path d="M0 0 C0.66 0.33 1.32 0.66 2 1 C-2.67108853 5.3791455 -7.17076013 8.34104848 -13 11 C-12.01 12.485 -12.01 12.485 -11 14 C-14.96 14.99 -18.92 15.98 -23 17 C-23 16.01 -23 15.02 -23 14 C-21.02 13.67 -19.04 13.34 -17 13 C-24.59 12.34 -32.18 11.68 -40 11 C-40.33 10.01 -40.66 9.02 -41 8 C-40.18917969 8.15855469 -39.37835937 8.31710938 -38.54296875 8.48046875 C-26.89466281 10.18854448 -14.04199637 10.55542998 -4.00390625 3.62109375 C-2.15485539 2.16443521 -2.15485539 2.16443521 0 0 Z " fill="#77CCE7" transform="translate(563,137)"/>
<path d="M0 0 C0.33 0 0.66 0 1 0 C1.03738281 0.87140625 1.07476562 1.7428125 1.11328125 2.640625 C1.56102075 10.75261127 2.72877813 18.20070982 5 26 C4.34 26 3.68 26 3 26 C3 25.01 3 24.02 3 23 C2.34 23 1.68 23 1 23 C2.485 27.455 2.485 27.455 4 32 C0.8046439 29.13357762 -0.81119921 26.72413554 -2.25 22.6875 C-2.58515625 21.78386719 -2.9203125 20.88023438 -3.265625 19.94921875 C-4 17 -4 17 -4 10 C-10.93 10 -17.86 10 -25 10 C-25.33 10.99 -25.66 11.98 -26 13 C-26.33 11.68 -26.66 10.36 -27 9 C-19.08 9 -11.16 9 -3 9 C-2.34 12.3 -1.68 15.6 -1 19 C-0.67 19.33 -0.34 19.66 0 20 C-0.17402344 19.16210938 -0.34804688 18.32421875 -0.52734375 17.4609375 C-1.03943925 13.7112134 -0.88232689 10.39185003 -0.5625 6.625 C-0.46066406 5.37976563 -0.35882813 4.13453125 -0.25390625 2.8515625 C-0.17011719 1.91054687 -0.08632813 0.96953125 0 0 Z " fill="#75CDE8" transform="translate(498,102)"/>
<path d="M0 0 C-0.68707031 0.24234375 -1.37414062 0.4846875 -2.08203125 0.734375 C-2.98308594 1.06953125 -3.88414062 1.4046875 -4.8125 1.75 C-6.15248047 2.23726563 -6.15248047 2.23726563 -7.51953125 2.734375 C-10.24295161 4.12396271 -11.38324384 5.44326932 -13 8 C-12.01 8.33 -11.02 8.66 -10 9 C-11.1094072 12.48670834 -12.26337666 15.77484237 -14 19 C-15.32 18.34 -16.64 17.68 -18 17 C-17.56416015 11.55200186 -16.48521211 8.23877149 -13 4 C-5.45904888 -1.69418758 -5.45904888 -1.69418758 0 0 Z " fill="#70C8E6" transform="translate(538,112)"/>
<path d="M0 0 C0.33 1.32 0.66 2.64 1 4 C0.01 4.33 -0.98 4.66 -2 5 C-2 5.66 -2 6.32 -2 7 C-4.44921875 8.76171875 -4.44921875 8.76171875 -7.6875 10.6875 C-8.74324219 11.33074219 -9.79898438 11.97398437 -10.88671875 12.63671875 C-14.25327871 14.11090875 -15.57894256 14.14881521 -19 13 C-17.24329325 9.4865865 -13.16414134 8.36809345 -9.76171875 6.6328125 C-7.02920182 5.01726501 -5.20784418 3.25021219 -3 1 C-2.01 0.67 -1.02 0.34 0 0 Z " fill="#6DD5F5" transform="translate(568,136)"/>
<path d="M0 0 C2.56616632 3.84924948 2.55097676 6.4349304 3 11 C6.25154712 10.97715855 9.49959514 10.89980426 12.75 10.8125 C13.67039062 10.80669922 14.59078125 10.80089844 15.5390625 10.79492188 C21.13027094 10.71538526 21.13027094 10.71538526 25.515625 7.51171875 C26.00546875 6.68285156 26.4953125 5.85398437 27 5 C29.95664519 3.5216774 32.74229737 3.93967217 36 4 C36 4.33 36 4.66 36 5 C34.07942708 5.32552083 32.15885417 5.65104167 30.23828125 5.9765625 C27.6747198 6.9178178 27.6747198 6.9178178 25.90625 10.03125 C24.20764218 12.20895233 23.35184677 12.91317359 20.63549805 13.58349609 C17.80650168 13.81376028 15.02570862 13.88262447 12.1875 13.875 C11.20845703 13.895625 10.22941406 13.91625 9.22070312 13.9375 C6.81294934 13.98448056 4.4081172 14.004453 2 14 C1.66179834 12.4176994 1.32964061 10.83410625 1 9.25 C0.814375 8.36828125 0.62875 7.4865625 0.4375 6.578125 C0 4 0 4 0 0 Z " fill="#76CEE8" transform="translate(578,96)"/>
<path d="M0 0 C0 3 0 3 -1.87109375 5.26171875 C-8.72953857 11.74435837 -8.72953857 11.74435837 -12.5625 12.515625 C-14.9375 12.4375 -14.9375 12.4375 -17.08984375 12.12109375 C-19.33429855 11.78503235 -19.33429855 11.78503235 -22 14 C-23.18276708 20.05018562 -23.18276708 20.05018562 -22 26 C-22.66 26 -23.32 26 -24 26 C-26.10188936 22.58442978 -26.4871351 19.97827 -26 16 C-24.44514573 13.14943384 -23.21478404 11.46663938 -20.12890625 10.28125 C-17.28415567 9.54989635 -14.46340458 9.0553429 -11.546875 8.70703125 C-8.28394157 7.80121691 -6.64189579 6.2453647 -4.1875 3.9375 C-3.39730469 3.20402344 -2.60710937 2.47054687 -1.79296875 1.71484375 C-1.20128906 1.14894531 -0.60960937 0.58304688 0 0 Z " fill="#77CFE7" transform="translate(501,142)"/>
<path d="M0 0 C2.875 1.4375 2.875 1.4375 5 3 C5 3.33 5 3.66 5 4 C1.7 4.33 -1.6 4.66 -5 5 C-5.99 7.31 -6.98 9.62 -8 12 C-8.99 11.34 -9.98 10.68 -11 10 C-10.69029053 6.59319587 -10.31233339 4.43958033 -8.3125 1.625 C-5.26888996 -0.513753 -3.65663237 -0.52237605 0 0 Z " fill="#6AD5F4" transform="translate(539,90)"/>
<path d="M0 0 C2.31 0.33 4.62 0.66 7 1 C7.33 2.32 7.66 3.64 8 5 C9.65 5 11.3 5 13 5 C13 6.98 13 8.96 13 11 C7.50288881 10.18561316 3.59139978 5.9904442 0 2 C0 1.34 0 0.68 0 0 Z " fill="#6BD2F2" transform="translate(556,73)"/>
<path d="M0 0 C7.25867508 -0.61514196 7.25867508 -0.61514196 10.9375 2.4375 C11.618125 3.283125 12.29875 4.12875 13 5 C13.33 5.33 13.66 5.66 14 6 C14.59227922 12.2781597 14.59227922 12.2781597 12 15.4375 C11.01 16.2109375 11.01 16.2109375 10 17 C10 15.68 10 14.36 10 13 C10.66 12.67 11.32 12.34 12 12 C12 10.35 12 8.7 12 7 C11.01 8.32 10.02 9.64 9 11 C8.938125 10.071875 8.938125 10.071875 8.875 9.125 C8.58625 8.42375 8.2975 7.7225 8 7 C5.00384054 5.6954344 5.00384054 5.6954344 2 5 C2 4.67 2 4.34 2 4 C3.98 4 5.96 4 8 4 C7.67 3.34 7.34 2.68 7 2 C4.67843403 1.59270772 2.3431213 1.25561323 0 1 C0 0.67 0 0.34 0 0 Z " fill="#7ED3EF" transform="translate(585,48)"/>
<path d="M0 0 C3.608181 1.202727 4.43689336 2.74650948 6.21484375 6.01171875 C7.40799006 9.03316887 7.26077635 11.80548974 7 15 C6.01 15.33 5.02 15.66 4 16 C2 15 2 15 1.3671875 13.15234375 C1.20476563 12.42144531 1.04234375 11.69054687 0.875 10.9375 C0.70742188 10.20402344 0.53984375 9.47054687 0.3671875 8.71484375 C0.24601563 8.14894531 0.12484375 7.58304687 0 7 C0.99 7.33 1.98 7.66 3 8 C2.67 6.02 2.34 4.04 2 2 C1.34 2 0.68 2 0 2 C0 1.34 0 0.68 0 0 Z " fill="#76D1ED" transform="translate(547,115)"/>
<path d="M0 0 C1.65 0 3.3 0 5 0 C5.33 0.66 5.66 1.32 6 2 C8.11846285 2.68729254 8.11846285 2.68729254 10.5625 3.125 C11.80193359 3.37636719 11.80193359 3.37636719 13.06640625 3.6328125 C13.70449219 3.75398437 14.34257813 3.87515625 15 4 C15 4.66 15 5.32 15 6 C15.66 6 16.32 6 17 6 C17 6.66 17 7.32 17 8 C7.69744435 7.42355959 7.69744435 7.42355959 4 4 C2.68163705 3.30419733 1.35208914 2.62775567 0 2 C0 1.34 0 0.68 0 0 Z " fill="#71D9F5" transform="translate(517,145)"/>
<path d="M0 0 C0.33 0.99 0.66 1.98 1 3 C-0.98 3 -2.96 3 -5 3 C-5.66 4.32 -6.32 5.64 -7 7 C-7.66 7 -8.32 7 -9 7 C-9 7.66 -9 8.32 -9 9 C-9.66 9 -10.32 9 -11 9 C-10.67470941 6.07238473 -10.40430823 3.67384706 -8.875 1.125 C-5.98014 -0.611916 -3.29140103 -0.18630572 0 0 Z " fill="#68D9FA" transform="translate(592,49)"/>
<path d="M0 0 C1.8871875 0.061875 1.8871875 0.061875 3.8125 0.125 C1.05026722 2.88723278 -1.39456617 2.70356291 -5.1875 3.125 C-5.1875 6.425 -5.1875 9.725 -5.1875 13.125 C-6.1775 13.455 -7.1675 13.785 -8.1875 14.125 C-9.10127136 9.46476609 -9.59366073 6.33578128 -7.1875 2.125 C-4.09861478 0.06574319 -3.47814073 -0.1140374 0 0 Z " fill="#63DCFB" transform="translate(486.1875,152.875)"/>
<path d="M0 0 C0.66 0.33 1.32 0.66 2 1 C1.319375 1.721875 0.63875 2.44375 -0.0625 3.1875 C-2.31737069 5.8205652 -2.31737069 5.8205652 -1.75 8.8125 C-1.37875 9.8953125 -1.37875 9.8953125 -1 11 C-0.34 10.34 0.32 9.68 1 9 C1.598125 9.639375 2.19625 10.27875 2.8125 10.9375 C4.90810337 13.20310389 4.90810337 13.20310389 8 14 C5.01758453 14.77321882 2.02419525 15.41196203 -1 16 C-3.41561488 13.4837345 -3.98985972 12.07967359 -4.4375 8.5625 C-3.93686067 4.48586544 -2.8188382 2.90692689 0 0 Z " fill="#79CBE8" transform="translate(531,90)"/>
<path d="M0 0 C0.33 0 0.66 0 1 0 C0.85851011 1.6045556 0.71164314 3.20863767 0.5625 4.8125 C0.48128906 5.70582031 0.40007813 6.59914063 0.31640625 7.51953125 C0 10 0 10 -1 13 C-0.01 13 0.98 13 2 13 C2.33 12.34 2.66 11.68 3 11 C2.5205537 15.21912747 1.83374881 17.79663178 -1 21 C-1.33 19.68 -1.66 18.36 -2 17 C-2.66 17 -3.32 17 -4 17 C-3.52434234 14.54093963 -3.04463948 12.08279007 -2.5625 9.625 C-2.42779297 8.92632812 -2.29308594 8.22765625 -2.15429688 7.5078125 C-1.11328125 2.2265625 -1.11328125 2.2265625 0 0 Z " fill="#73CAE6" transform="translate(576,109)"/>
<path d="M0 0 C2.97 1.32 5.94 2.64 9 4 C9 4.33 9 4.66 9 5 C7.35 5 5.7 5 4 5 C5.50663783 8.01327566 8.03166411 8.61056618 11 10 C10.01 10.495 10.01 10.495 9 11 C3.64185802 9.17846829 -0.28570342 6.17858365 -4 2 C-2.02 2.66 -0.04 3.32 2 4 C2 3.34 2 2.68 2 2 C1.34 2 0.68 2 0 2 C0 1.34 0 0.68 0 0 Z " fill="#79D0E9" transform="translate(513,140)"/>
<path d="M0 0 C2.06859594 3.46468539 2.47175389 6.56895554 2.8125 10.5625 C2.92207031 11.69816406 3.03164063 12.83382812 3.14453125 14.00390625 C3 17 3 17 1.63671875 18.90234375 C0 20 0 20 -2 20 C-1.505 18.515 -1.505 18.515 -1 17 C-0.85596652 15.66636297 -0.75409577 14.32781954 -0.68359375 12.98828125 C-0.64169922 12.23095703 -0.59980469 11.47363281 -0.55664062 10.69335938 C-0.51732422 9.90767578 -0.47800781 9.12199219 -0.4375 8.3125 C-0.39431641 7.51521484 -0.35113281 6.71792969 -0.30664062 5.89648438 C-0.20072632 3.93118553 -0.09987449 1.96561504 0 0 Z " fill="#6AC8DF" transform="translate(534,156)"/>
<path d="M0 0 C2.49361571 1.20381448 4.68143083 2.45428722 7 4 C7 4.66 7 5.32 7 6 C7.66 6 8.32 6 9 6 C9 6.66 9 7.32 9 8 C5.58978257 7.21302675 2.31114834 6.12880057 -1 5 C-0.67 3.35 -0.34 1.7 0 0 Z " fill="#65D8F8" transform="translate(506,136)"/>
<path d="M0 0 C0.99 0.495 0.99 0.495 2 1 C2 2.98 2 4.96 2 7 C5.62885324 7.15149298 5.62885324 7.15149298 9 6 C9.33 7.98 9.66 9.96 10 12 C8.02 12.66 6.04 13.32 4 14 C3.34 13.34 2.68 12.68 2 12 C3.32 11.34 4.64 10.68 6 10 C5.195625 9.71125 4.39125 9.4225 3.5625 9.125 C1 8 1 8 0 6 C-0.039992 4.00039988 -0.04346799 1.99952758 0 0 Z " fill="#82D2ED" transform="translate(605,106)"/>
<path d="M0 0 C1.62463842 -0.05395478 3.24978541 -0.09277195 4.875 -0.125 C5.77992188 -0.14820313 6.68484375 -0.17140625 7.6171875 -0.1953125 C10 0 10 0 12 2 C10.741875 2.103125 9.48375 2.20625 8.1875 2.3125 C5.39500343 2.64858808 4.25566879 2.80025876 2 4.5625 C1.67 5.036875 1.34 5.51125 1 6 C0.34 5.34 -0.32 4.68 -1 4 C-0.625 1.875 -0.625 1.875 0 0 Z " fill="#60D9FC" transform="translate(536,149)"/>
<path d="M0 0 C0.33 0.66 0.66 1.32 1 2 C0.0625 4.625 0.0625 4.625 -1 7 C-0.01 6.67 0.98 6.34 2 6 C1.01 9.63 0.02 13.26 -1 17 C-1.33 17 -1.66 17 -2 17 C-2 14.36 -2 11.72 -2 9 C-2.66 9 -3.32 9 -4 9 C-2.94124926 5.59687262 -1.99097846 2.98646769 0 0 Z " fill="#74CCE5" transform="translate(501,85)"/>
<path d="M0 0 C0.66 0.33 1.32 0.66 2 1 C2 2.65 2 4.3 2 6 C0.1875 7.0625 0.1875 7.0625 -2 8 C-2.99 7.67 -3.98 7.34 -5 7 C-4.1875 4.0625 -4.1875 4.0625 -3 1 C-2.01 0.67 -1.02 0.34 0 0 Z " fill="#61D9FA" transform="translate(584,59)"/>
<path d="M0 0 C0.99 0 1.98 0 3 0 C2.62403791 2.78211944 2.32681541 4.5879284 0.5625 6.8125 C-1 8 -1 8 -3 8 C-2.45276317 4.62537285 -1.9451 2.91765 0 0 Z " fill="#6DD2F7" transform="translate(503,84)"/>
<path d="M0 0 C0.33 0.66 0.66 1.32 1 2 C1.66 2.165 2.32 2.33 3 2.5 C3.66 2.665 4.32 2.83 5 3 C5.33 3.66 5.66 4.32 6 5 C4.35 4.67 2.7 4.34 1 4 C1 4.99 1 5.98 1 7 C-0.98 7 -2.96 7 -5 7 C-4.360625 6.21625 -3.72125 5.4325 -3.0625 4.625 C-1.01857687 2.20460719 -1.01857687 2.20460719 0 0 Z " fill="#75D1ED" transform="translate(539,172)"/>
<path d="M0 0 C1.65 0 3.3 0 5 0 C5 1.98 5 3.96 5 6 C2.13275314 5.42655063 1.1385485 5.1385485 -1 3 C-0.67 2.01 -0.34 1.02 0 0 Z " fill="#65D6FA" transform="translate(564,78)"/>
<path d="M0 0 C0.99 0 1.98 0 3 0 C3 0.99 3 1.98 3 3 C2.34 3 1.68 3 1 3 C1 4.98 1 6.96 1 9 C0.01 9.495 0.01 9.495 -1 10 C-2.25 3.375 -2.25 3.375 0 0 Z " fill="#65D8F3" transform="translate(616,108)"/>
<path d="M0 0 C0.66 0.33 1.32 0.66 2 1 C2.49230769 8.38461538 2.49230769 8.38461538 0 11.5 C-0.66 11.995 -1.32 12.49 -2 13 C-2 11.68 -2 10.36 -2 9 C-1.34 9 -0.68 9 0 9 C0 6.03 0 3.06 0 0 Z " fill="#7ED9EE" transform="translate(545,177)"/>
<path d="M0 0 C2.475 0.99 2.475 0.99 5 2 C4.67 3.65 4.34 5.3 4 7 C2.68 7.33 1.36 7.66 0 8 C0.33 7.01 0.66 6.02 1 5 C0.60602665 2.36195411 0.60602665 2.36195411 0 0 Z " fill="#67D8FA" transform="translate(541,30)"/>
<path d="M0 0 C2.25 -0.3125 2.25 -0.3125 5 0 C7.3125 2.5 7.3125 2.5 9 5 C6.525 4.01 6.525 4.01 4 3 C4.66 4.98 5.32 6.96 6 9 C5.34 9 4.68 9 4 9 C3.67 8.01 3.34 7.02 3 6 C2.34 5.34 1.68 4.68 1 4 C1.66 4 2.32 4 3 4 C3 3.01 3 2.02 3 1 C2.01 0.67 1.02 0.34 0 0 Z " fill="#76CEE5" transform="translate(537,27)"/>
<path d="M0 0 C0.33 1.32 0.66 2.64 1 4 C0.01 4.33 -0.98 4.66 -2 5 C-2 5.66 -2 6.32 -2 7 C-2.99 6.67 -3.98 6.34 -5 6 C-4.75 4.125 -4.75 4.125 -4 2 C-1.9375 0.75 -1.9375 0.75 0 0 Z " fill="#61D9FA" transform="translate(568,136)"/>
<path d="M0 0 C0.268125 0.61875 0.53625 1.2375 0.8125 1.875 C1.95556848 4.2995233 1.95556848 4.2995233 5 6 C5 6.66 5 7.32 5 8 C4.34 8 3.68 8 3 8 C2.67 8.66 2.34 9.32 2 10 C0.5 8.6875 0.5 8.6875 -1 7 C-1 4.37886292 -0.68707555 2.49064888 0 0 Z " fill="#6ED0F1" transform="translate(480,56)"/>
<path d="M0 0 C1.98 0.66 3.96 1.32 6 2 C6 2.99 6 3.98 6 5 C3.36 5 0.72 5 -2 5 C-1.34 3.35 -0.68 1.7 0 0 Z " fill="#62D7F9" transform="translate(534,26)"/>
<path d="M0 0 C0.33 0.99 0.66 1.98 1 3 C0.01 4.485 0.01 4.485 -1 6 C-1.07905064 8.33199388 -1.08798769 10.66832622 -1 13 C-3 11 -3 11 -3.3125 7.625 C-2.99258956 3.9140389 -2.5224581 2.62756052 0 0 Z " fill="#77C9E8" transform="translate(530,175)"/>
<path d="M0 0 C1.875 0.3125 1.875 0.3125 4 1 C6 4 6 4 5.625 6.1875 C5.41875 6.785625 5.2125 7.38375 5 8 C4.67 7.34 4.34 6.68 4 6 C3.34 6 2.68 6 2 6 C1.34 4.02 0.68 2.04 0 0 Z " fill="#62DAFB" transform="translate(545,116)"/>
<path d="M0 0 C1.65 0 3.3 0 5 0 C4.67 1.32 4.34 2.64 4 4 C2.68 4.33 1.36 4.66 0 5 C0 3.35 0 1.7 0 0 Z " fill="#65D8F9" transform="translate(505,78)"/>
<path d="M0 0 C0.99 0.33 1.98 0.66 3 1 C2.67 2.32 2.34 3.64 2 5 C0.68 5.33 -0.64 5.66 -2 6 C-1.49396008 3.83125748 -1.00016187 2.00032373 0 0 Z " fill="#6BDCF8" transform="translate(502,142)"/>
<path d="M0 0 C7.26153846 -0.61538462 7.26153846 -0.61538462 11 2.5 C11.66 3.325 12.32 4.15 13 5 C12.154375 4.71125 11.30875 4.4225 10.4375 4.125 C6.97638959 2.99227296 3.50627443 1.98175684 0 1 C0 0.67 0 0.34 0 0 Z " fill="#77C9E2" transform="translate(533,89)"/>
<path d="M0 0 C-4.52092968 1.45606519 -7.51648796 0.27032841 -12 -1 C-12 -1.33 -12 -1.66 -12 -2 C-7.05687635 -3.20238143 -4.43956276 -2.29632557 0 0 Z " fill="#71D0F0" transform="translate(530,72)"/>
<path d="M0 0 C1.98 0.66 3.96 1.32 6 2 C6 3.32 6 4.64 6 6 C4 5 2 4 0 3 C0 2.01 0 1.02 0 0 Z " fill="#61D9FB" transform="translate(569,141)"/>
<path d="M0 0 C0.99 0.33 1.98 0.66 3 1 C3 1.99 3 2.98 3 4 C3.66 4 4.32 4 5 4 C5 4.99 5 5.98 5 7 C4.01 6.67 3.02 6.34 2 6 C2 5.34 2 4.68 2 4 C1.34 4 0.68 4 0 4 C0 2.68 0 1.36 0 0 Z " fill="#65D8F9" transform="translate(571,87)"/>
<path d="M0 0 C1.65 0.33 3.3 0.66 5 1 C4.67 1.99 4.34 2.98 4 4 C2.02 4 0.04 4 -2 4 C-2 3.34 -2 2.68 -2 2 C-1.34 2 -0.68 2 0 2 C0 1.34 0 0.68 0 0 Z " fill="#5EDAFD" transform="translate(485,62)"/>
<path d="M0 0 C0.33 0 0.66 0 1 0 C1.125 2.875 1.125 2.875 1 6 C-1 8 -1 8 -3.625 8.125 C-4.40875 8.08375 -5.1925 8.0425 -6 8 C-4.625 6.5 -4.625 6.5 -3 5 C-2.34 5 -1.68 5 -1 5 C-0.67 3.35 -0.34 1.7 0 0 Z " fill="#7CD1F0" transform="translate(490,159)"/>
<path d="M0 0 C2.64 0.33 5.28 0.66 8 1 C8 1.66 8 2.32 8 3 C5.125 3.1875 5.125 3.1875 2 3 C1.34 2.01 0.68 1.02 0 0 Z " fill="#63D9FD" transform="translate(524,148)"/>
<path d="M0 0 C0.66 1.32 1.32 2.64 2 4 C0.02 4.66 -1.96 5.32 -4 6 C-4.66 5.34 -5.32 4.68 -6 4 C-4.02 3.34 -2.04 2.68 0 2 C0 1.34 0 0.68 0 0 Z " fill="#74CFE9" transform="translate(613,114)"/>
<path d="M0 0 C0.66 0 1.32 0 2 0 C2 2.31 2 4.62 2 7 C1.01 6.34 0.02 5.68 -1 5 C-0.67 3.35 -0.34 1.7 0 0 Z " fill="#65D8FB" transform="translate(529,95)"/>
<path d="M0 0 C0.66 0 1.32 0 2 0 C1.67 0.66 1.34 1.32 1 2 C0.67 1.34 0.34 0.68 0 0 Z " fill="#8CDBE4" transform="translate(538,34)"/>
</svg>
